<?xml version="1.0" standalone="no"?><!DOCTYPE svg PUBLIC "-//W3C//DTD SVG 1.1//EN" "http://www.w3.org/Graphics/SVG/1.1/DTD/svg11.dtd"><svg t="1706252502112" class="icon" viewBox="0 0 1024 1024" version="1.1" xmlns="http://www.w3.org/2000/svg" p-id="1012" xmlns:xlink="http://www.w3.org/1999/xlink" width="48" height="48"><path d="M512 510.4m-448 0a448 448 0 1 0 896 0 448 448 0 1 0-896 0Z" fill="#26A17B" p-id="1013"></path><path d="M451.2 447.152v0.848c4.16-0.56 3.824-0.864 0-0.848z" fill="#6CA7B7" p-id="1014"></path><path d="M820.096 512C798.576 456 572.8 448 572.8 448v-72h169.6v-112H281.6v112h169.6v71.152c3.824 0 4.16 0.288 0 0.848v-0.848c-28.496 0-250.816 17.456-248 69.648 3.2 59.2 248 68.8 248 68.8v238.4h121.6V585.6c278.4-17.6 247.296-73.6 247.296-73.6z m-302.768 54.4s-219.568 0.896-276.448-41.952c0 0-27.104-17.984 22.016-36.8 0 0 66.704-25.216 188.304-28.416v86.4h121.6V459.2s211.2 8 214.4 52.8c0 0 9.6 48-269.872 54.4z" fill="#FFFFFF" p-id="1015"></path></svg>