<?xml version="1.0" standalone="no"?><!DOCTYPE svg PUBLIC "-//W3C//DTD SVG 1.1//EN" "http://www.w3.org/Graphics/SVG/1.1/DTD/svg11.dtd"><svg t="1707380138482" class="icon" viewBox="0 0 1024 1024" version="1.1" xmlns="http://www.w3.org/2000/svg" p-id="2408" xmlns:xlink="http://www.w3.org/1999/xlink" width="48" height="48"><path d="M0 0h1024v1024H0z" fill="#FFFFFF" p-id="2409"></path><path d="M96 224H64h32z m0 576h32-32z m704 128v-32 32zM224 928v32-32zM928 224h-32 32z m0 576h32-32zM800 96V64v32zM224 96v32-32z m288 384h-32 32z m0 64h32-32z m416 128v32a32 32 0 0 0 32-32h-32z m-288 0v32-32z m288-320h32v-32h-32v32z m-288 0v32-32z m32 160v64a64 64 0 0 0 64-64h-64z m0 0h-64a64 64 0 0 0 64 64v-64z m0 0v-64a64 64 0 0 0-64 64h64z m0 0h64a64 64 0 0 0-64-64v64zM64 224v576h64V224H64z m736 672H224v64h576v-64z m96-672v576h64V224h-64z m-96-160H224v64h576V64z m160 160a160 160 0 0 0-160-160v64a96 96 0 0 1 96 96h64zM128 224a96 96 0 0 1 96-96V64a160 160 0 0 0-160 160h64zM64 800a160 160 0 0 0 160 160v-64a96 96 0 0 1-96-96H64z m736 160a160 160 0 0 0 160-160h-64a96 96 0 0 1-96 96v64zM480 480v64h64v-64h-64z m448 160h-288v64h288v-64z m-32-288v320h64V352h-64z m32-32h-288v64h288v-64z m-384 160a96 96 0 0 1 96-96v-64a160 160 0 0 0-160 160h64z m-64 64a160 160 0 0 0 160 160v-64a96 96 0 0 1-96-96h-64z" fill="#000000" p-id="2410"></path></svg>